<?xml version="1.0" encoding="UTF-8" standalone="no"?>
<!-- Created with Inkscape (http://www.inkscape.org/) -->

<svg
   width="1338.4288mm"
   height="596.47687mm"
   viewBox="0 0 1338.4288 596.47687"
   version="1.1"
   id="svg5"
   inkscape:version="1.1.1 (3bf5ae0d25, 2021-09-20)"
   sodipodi:docname="logoBlanco.svg"
   xmlns:inkscape="http://www.inkscape.org/namespaces/inkscape"
   xmlns:sodipodi="http://sodipodi.sourceforge.net/DTD/sodipodi-0.dtd"
   xmlns="http://www.w3.org/2000/svg"
   xmlns:svg="http://www.w3.org/2000/svg">
  <sodipodi:namedview
     id="namedview7"
     pagecolor="#505050"
     bordercolor="#eeeeee"
     borderopacity="1"
     inkscape:pageshadow="0"
     inkscape:pageopacity="0"
     inkscape:pagecheckerboard="0"
     inkscape:document-units="mm"
     showgrid="false"
     fit-margin-top="0"
     fit-margin-left="0"
     fit-margin-right="0"
     fit-margin-bottom="0"
     inkscape:zoom="0.13574952"
     inkscape:cx="2232.0521"
     inkscape:cy="1506.451"
     inkscape:window-width="1920"
     inkscape:window-height="1051"
     inkscape:window-x="-9"
     inkscape:window-y="-9"
     inkscape:window-maximized="1"
     inkscape:current-layer="text10038-2" />
  <defs
     id="defs2" />
  <g
     inkscape:label="Capa 1"
     inkscape:groupmode="layer"
     id="layer1"
     transform="translate(548.96728,162.48668)">
    <g
       aria-label="GUATEMALA"
       id="text10038"
       style="font-size:237.437px;line-height:1.25;fill:#ffffff;stroke-width:5.93596">
      <path
         d="m -470.85051,167.89773 c 44.63815,0 72.41828,-31.57912 74.08034,-75.504969 V 74.822423 h -76.45471 v 35.615547 h 31.10425 c -4.27387,13.05904 -17.80778,18.28265 -28.72988,18.28265 -23.26883,0 -38.93967,-16.62059 -38.93967,-39.889414 0,-23.268826 15.67084,-39.889415 38.93967,-39.889415 10.44723,0 22.55651,3.798992 30.86681,15.195967 l 31.57912,-23.506262 c -13.29647,-18.99496 -35.14068,-30.8668097 -62.44593,-30.8668097 -45.82534,0 -78.11677,33.2411797 -78.11677,79.0665197 0,45.825344 32.29143,79.066524 78.11677,79.066524 z"
         style="font-weight:900;font-family:Causten;-inkscape-font-specification:'Causten Heavy'"
         id="path851" />
      <path
         d="m -314.37982,167.89773 c 39.65198,0 61.02131,-27.06782 61.02131,-56.98488 V 11.664182 h -39.1771 v 94.737358 c 0,18.75753 -11.63442,23.50627 -21.84421,23.50627 -10.20979,0 -21.8442,-4.74874 -21.8442,-23.50627 V 11.664182 h -39.17711 v 99.248668 c 0,29.91706 21.36933,56.98488 61.02131,56.98488 z"
         style="font-weight:900;font-family:Causten;-inkscape-font-specification:'Causten Heavy'"
         id="path853" />
      <path
         d="m -246.23598,165.99823 h 41.55147 l 6.64824,-17.09546 h 57.22231 l 6.64824,17.09546 h 41.551475 L -154.5853,11.664182 h -29.67963 z m 61.73362,-52.71101 14.95853,-38.939671 14.95853,38.939671 z"
         style="font-weight:900;font-family:Causten;-inkscape-font-specification:'Causten Heavy'"
         id="path855" />
      <path
         d="m -58.424211,165.99823 h 39.177104 V 47.279732 h 43.45097 V 11.664182 H -102.11262 v 35.61555 h 43.688409 z"
         style="font-weight:900;font-family:Causten;-inkscape-font-specification:'Causten Heavy'"
         id="path857" />
      <path
         d="M 43.198591,165.99823 H 150.75755 V 130.38268 H 82.375695 v -23.7437 H 145.77137 V 71.023431 H 82.375695 V 47.279732 H 150.75755 V 11.664182 H 43.198591 Z"
         style="font-weight:900;font-family:Causten;-inkscape-font-specification:'Causten Heavy'"
         id="path859" />
      <path
         d="m 173.3137,165.99823 h 39.17711 V 92.392761 l 26.83038,56.747439 h 27.06782 l 26.83038,-56.747439 v 73.605469 h 39.1771 V 11.664182 h -39.1771 L 252.8551,92.155324 212.49081,11.664182 H 173.3137 Z"
         style="font-weight:900;font-family:Causten;-inkscape-font-specification:'Causten Heavy'"
         id="path861" />
      <path
         d="m 349.01676,165.99823 h 41.55148 l 6.64824,-17.09546 h 57.22231 l 6.64824,17.09546 H 502.6385 L 440.66745,11.664182 h -29.67963 z m 61.73362,-52.71101 14.95853,-38.939671 14.95854,38.939671 z"
         style="font-weight:900;font-family:Causten;-inkscape-font-specification:'Causten Heavy'"
         id="path863" />
      <path
         d="M 516.88426,165.99823 H 623.96835 V 130.38268 H 556.06136 V 11.664182 h -39.1771 z"
         style="font-weight:900;font-family:Causten;-inkscape-font-specification:'Causten Heavy'"
         id="path865" />
      <path
         d="m 635.83976,165.99823 h 41.55148 l 6.64823,-17.09546 h 57.22232 l 6.64824,17.09546 H 789.4615 L 727.49044,11.664182 h -29.67962 z m 61.73362,-52.71101 14.95853,-38.939671 14.95853,38.939671 z"
         style="font-weight:900;font-family:Causten;-inkscape-font-specification:'Causten Heavy'"
         id="path867" />
    </g>
    <g
       aria-label="Conoce"
       id="text10038-2"
       style="font-size:208.278px;line-height:1.25;fill:#ffffff;stroke-width:5.20697">
      <path
         d="m -421.44785,-124.59866 7.498,-4.58212 c -9.58078,-16.87051 -27.49269,-27.28441 -51.44466,-27.28441 -40.19766,0 -71.0228,29.15892 -76.02147,69.35657 -4.99867,40.197654 18.74502,69.356574 58.94267,69.356574 23.95197,0 44.36322,-10.4139 58.10956,-27.284418 l -6.24834,-4.790394 c -11.87184,14.371182 -29.78375,23.743692 -50.81983,23.743692 -35.40726,0 -56.23506,-25.826472 -51.86122,-61.025454 4.37384,-35.19898 31.44998,-61.02545 66.85724,-61.02545 21.03608,0 36.65693,9.16423 44.98805,23.53541 z"
         style="font-style:oblique;font-weight:200;font-family:Causten;-inkscape-font-specification:'Causten Ultra-Light Oblique'"
         id="path838" />
      <path
         d="m -362.08884,-17.752046 c 28.74236,0 50.81983,-21.036078 54.36056,-49.570164 3.54072,-28.534086 -13.53807,-49.36189 -42.28044,-49.36189 -28.53408,0 -50.81983,20.827804 -54.36055,49.36189 -3.54073,28.534086 13.74634,49.570164 42.28043,49.570164 z m 0.83311,-7.498008 c -23.95197,0 -37.90659,-17.911908 -34.9907,-42.072156 2.91589,-24.160248 21.45263,-41.86388 45.4046,-41.86388 24.16025,0 37.9066,17.703632 34.99071,41.86388 -2.9159,24.160248 -21.24436,42.072156 -45.40461,42.072156 z"
         style="font-style:oblique;font-weight:200;font-family:Causten;-inkscape-font-specification:'Causten Ultra-Light Oblique'"
         id="path840" />
      <path
         d="m -234.62307,-116.6841 c -13.74635,0 -27.28442,5.62351 -35.61554,17.495356 l 1.8745,-16.037406 h -7.70628 l -11.66357,95.80788 h 7.70628 l 7.28973,-58.526118 c 2.29106,-19.369854 17.0788,-31.658252 35.82382,-31.658252 18.74502,0 30.82514,12.288398 28.53409,31.658252 l -7.28973,58.526118 h 7.70628 l 7.28973,-59.150952 c 3.12417,-25.618198 -13.53807,-38.114878 -33.94931,-38.114878 z"
         style="font-style:oblique;font-weight:200;font-family:Causten;-inkscape-font-specification:'Causten Ultra-Light Oblique'"
         id="path842" />
      <path
         d="m -134.02498,-17.752046 c 28.74236,0 50.819831,-21.036078 54.360557,-49.570164 3.540726,-28.534086 -13.53807,-49.36189 -42.280437,-49.36189 -28.53408,0 -50.81983,20.827804 -54.36056,49.36189 -3.54072,28.534086 13.74635,49.570164 42.28044,49.570164 z m 0.83311,-7.498008 c -23.95197,0 -37.9066,-17.911908 -34.9907,-42.072156 2.91589,-24.160248 21.45263,-41.86388 45.4046,-41.86388 24.160249,0 37.906597,17.703632 34.990705,41.86388 -2.915892,24.160248 -21.244355,42.072156 -45.404605,42.072156 z"
         style="font-style:oblique;font-weight:200;font-family:Causten;-inkscape-font-specification:'Causten Ultra-Light Oblique'"
         id="path844" />
      <path
         d="m 28.223226,-93.148682 6.456618,-4.373838 c -6.873174,-11.87185 -19.78641,-19.16158 -36.6569277,-19.16158 -28.5340863,0 -50.8198323,20.827804 -54.3605583,49.36189 -3.540726,28.534086 13.746348,49.570164 42.280434,49.570164 16.8705183,0 31.449978,-7.28973 41.239044,-19.369854 l -5.20695,-4.16556 c -8.33112,9.580788 -20.2029657,16.037406 -34.990704,16.037406 -24.576804,0 -38.53143,-17.70363 -35.615538,-42.072156 3.12417,-24.368526 21.452634,-41.86388 46.0294383,-41.86388 14.7877377,0 24.9933597,6.24834 30.8251437,16.037408 z"
         style="font-style:oblique;font-weight:200;font-family:Causten;-inkscape-font-specification:'Causten Ultra-Light Oblique'"
         id="path846" />
      <path
         d="m 103.20327,-116.6841 c -28.534084,0 -49.570162,20.827804 -53.110888,49.36189 -3.540726,28.534086 13.53807,49.570164 42.280434,49.570164 17.495354,0 32.699644,-7.706286 42.488714,-20.411244 l -5.41523,-3.957282 c -8.12284,10.4139 -20.8278,17.287074 -36.240372,17.287074 -23.327136,0 -37.073484,-16.037406 -35.823816,-39.364542 h 84.977428 l 0.41655,-3.12417 c 3.54073,-28.534086 -12.70496,-49.36189 -39.57282,-49.36189 z m -0.83311,6.87318 c 21.86919,0 35.19898,16.45396 33.53276,39.36454 H 58.215224 c 4.16556,-23.327136 20.619522,-39.36454 44.154936,-39.36454 z"
         style="font-style:oblique;font-weight:200;font-family:Causten;-inkscape-font-specification:'Causten Ultra-Light Oblique'"
         id="path848" />
    </g>
    <g
       id="g14119"
       transform="matrix(1.11604,0,0,1.11604,-274.74748,1018.7468)"
       style="fill:#008000">
      <path
         d="m 460.14156,-1024.566 c 0,0 -2.78341,-7.7964 -2.59644,-14.6438 l -2.94922,-3.7747 2.94922,-5.2952 1.16064,3.2879 -0.2787,-4.4733 4.02873,-4.9353 0.20461,4.6214 1.34408,-5.5281 5.57036,-2.1978 -0.54328,3.93 1.91206,-4.2933 6.0325,-0.5468 -2.38125,4.2756 3.65478,-4.0922 5.04472,0.3457 -2.48355,3.8488 3.60891,-3.8488 6.24064,1.6263 -3.82764,2.5965 5.15761,-1.972 5.61975,2.2401 -4.37091,1.8697 5.43278,-0.762 3.79941,3.7571 -4.73428,0.5009 c 0.36337,0.3634 5.07295,1.0407 5.07295,1.0407 l 5.80672,7.0274 -4.51555,-0.6421 c 2.42005,10.7209 -4.01109,26.0844 2.34244,32.1592 49.32186,47.20171 202.87193,121.49319 178.15279,304.38731 -23.80928,102.64577 -46.95784,133.22281 -85.1645,167.28446 -15.99872,10.54795 -28.09569,6.96029 -28.09569,6.96029 22.40674,-9.49049 31.02932,-22.09336 54.90152,-53.6927 0,0 -11.77911,11.94611 -35.15768,33.26448 -35.23545,26.67 -60.8541,26.27484 -60.8541,26.27484 0,0 14.55893,1.91342 69.90624,-50.79159 62.72742,-59.70058 52.24501,-75.58936 52.24501,-75.58936 0,0 -16.09725,29.87322 -24.14764,40.27664 -8.04686,10.42106 -32.21214,28.56089 -32.21214,28.56089 0,0 16.09725,-19.80847 26.17259,-33.32692 10.07533,-13.51139 19.12761,-35.03436 19.12761,-35.03436 0,0 -10.06828,11.51114 -19.12761,21.94631 -9.05228,10.46691 -26.17259,16.22778 -26.17259,16.22778 0,0 78.12617,-61.18579 58.38473,-164.54615 -18.1222,-94.82668 -70.4462,-119.77159 -70.4462,-119.77159 l -2.01789,8.13505 -11.08781,-13.61017 -4.00755,11.2395 -19.12409,-14.28044 -24.15469,-4.99533 c 0,0 -30.19778,-5.75381 -59.3972,-41.7442 -16.00906,-19.75203 -1.99672,-60.29674 -1.99672,-60.29674 l -2.02848,-12.9999"
         style="fill:#008000;fill-opacity:1;fill-rule:nonzero;stroke:none;stroke-width:0.0352778"
         id="path1256"
         sodipodi:nodetypes="cccccccccccccccccccccccccccccccccccccccccccccccccccccc" />
      <path
         d="m 464.30787,-1021.5991 -1.11125,7.4259 c 0,0 -6.25475,0.9525 -14.51328,-4.2651 l 15.62453,-3.1608"
         style="fill:#008000;fill-opacity:1;fill-rule:nonzero;stroke:none;stroke-width:0.0352778"
         id="path1258" />
      <path
         d="m 448.68334,-1018.4383 c 0,0 2.83986,-8.3608 11.60639,-11.0807 l 4.01814,7.9199 -15.62453,3.1608"
         style="fill:#008000;fill-opacity:1;fill-rule:nonzero;stroke:none;stroke-width:0.0352778"
         id="path1260" />
    </g>
    <path
       d="m 262.28971,-132.4385 c 0,2.067 -1.68116,3.7481 -3.75603,3.7481 -2.07488,0 -3.75997,-1.6811 -3.75997,-3.7481 0,-2.0749 1.68509,-3.756 3.75997,-3.756 2.07487,0 3.75603,1.6811 3.75603,3.756"
       style="fill:#ffffff;fill-opacity:1;fill-rule:nonzero;stroke:none;stroke-width:0.0393714"
       id="path1264" />
    <path
       d="m 258.78566,-133.2023 c 0,0.5827 -0.47639,1.063 -1.06303,1.063 -0.57876,0 -1.06303,-0.4803 -1.06303,-1.063 0,-0.5867 0.48427,-1.0591 1.06303,-1.0591 0.58664,0 1.06303,0.4724 1.06303,1.0591"
       style="fill:#ffffff;fill-opacity:1;fill-rule:nonzero;stroke:none;stroke-width:0.0393714"
       id="path1266" />
    <g
       id="g14127"
       transform="matrix(1.11604,0,0,1.11604,-274.74748,1018.7468)"
       style="fill:#808000">
      <path
         d="m 458.14484,-963.7965 c 0,0 7.22489,8.06803 13.335,8.20561 3.96522,0.0882 9.68728,-3.13267 9.68728,-3.13267 0,0 3.79589,11.06312 9.68022,11.69106 3.46428,0.36336 8.48431,-2.78342 8.48431,-2.78342 0,0 0,4.84364 1.21003,10.84086 1.20297,6.01487 7.26016,10.60451 7.26016,10.60451 l 3.63714,-5.00592 14.54856,16.32303 c 0,0 -30.30008,-1.10772 -47.24753,-17.34961 -16.96861,-16.23837 -20.59517,-29.39345 -20.59517,-29.39345"
         style="fill:#808000;fill-opacity:1;fill-rule:evenodd;stroke:none;stroke-width:0.0352778"
         id="path1268" />
      <path
         d="m 503.06051,-947.68867 c -0.20814,-1.06539 0.77258,10.11767 8.48078,6.49817 4.61433,-4.37092 4.54378,3.92994 7.25311,4.54378 3.03036,1.15358 5.35517,-0.29986 5.35517,-0.007 -7.47536,5.76439 -10.78795,-3.21028 -10.78795,-3.21028 -1.56986,0.82903 -1.47461,1.60867 -3.85233,1.69334 -5.7397,0.7373 -7.67645,-6.16656 -6.44878,-9.51795"
         style="fill:#808000;fill-opacity:1;fill-rule:nonzero;stroke:none;stroke-width:0.0352778"
         id="path1270" />
      <path
         d="m 483.48487,-967.96633 c 4.71664,11.75102 7.84931,9.95186 7.84931,9.95186 0.0176,-0.007 0.97014,2.05316 1.83444,3.048 1.29822,3.23497 5.00239,-3.50661 6.33589,0.60325 1.09714,1.07597 2.6917,-0.0247 3.53131,-1.28764 2.01436,-2.04259 1.36525,1.94733 2.69169,2.07786 2.18722,1.99672 4.47322,0.0176 4.32506,0.31044 -0.0529,-0.0952 -3.71123,4.87187 -6.20536,-1.23825 -1.4852,5.36575 -5.60917,1.54164 -6.23712,0.20109 -5.54919,7.58119 -6.40644,-2.81517 -6.59694,-2.77989 -0.83256,0.49389 -2.45886,1.10772 -4.30036,-0.66675 -2.19781,-2.38125 -3.22792,-10.21997 -3.22792,-10.21997"
         style="fill:#808000;fill-opacity:1;fill-rule:nonzero;stroke:none;stroke-width:0.0352778"
         id="path1272" />
      <path
         d="m 521.06982,-932.92492 c 0.14816,-0.0776 -0.32103,3.0727 2.03553,6.69925 1.22766,1.97203 3.98991,2.23309 6.47347,1.43581 1.94028,-0.77611 5.70442,-3.95464 7.71172,-0.44803 9.33803,10.03653 21.09964,12.07911 24.40517,11.47586 0.30339,0.127 -7.16492,2.82928 -15.63159,-2.9598 -3.62655,-1.72508 -10.14236,-7.34131 -11.70869,-8.57603 -2.65642,1.32292 -6.00428,3.40783 -9.76136,1.64394 -3.48897,-2.04611 -3.75003,-6.12775 -3.52425,-9.271"
         style="fill:#808000;fill-opacity:1;fill-rule:nonzero;stroke:none;stroke-width:0.0352778"
         id="path1274" />
      <path
         d="m 480.10879,-979.32931 c 8.09272,13.29973 18.08692,5.02709 18.08692,5.02709 5.842,3.34786 3.83469,6.52639 4.318,7.57414 1.16063,2.04258 3.25613,2.9598 5.78202,3.32316 1.25589,0.1905 5.19289,-0.29633 5.19289,-0.29633 -0.64205,-0.65617 4.318,15.05303 9.33803,7.61647 6.36059,7.38364 2.39889,6.44172 6.33589,7.21078 6.985,3.98992 3.18558,5.84906 6.92503,6.27239 0.56092,0.0811 1.23472,-0.10936 1.86972,-0.10936 3.23497,5.461 -1.20297,6.03955 -1.23119,6.80861 6.90033,6.34647 17.60361,0.25047 15.74447,-0.36336 0.27517,-0.13053 -1.54164,4.18042 -8.13506,4.85775 -2.51177,-0.58914 -8.59366,2.45533 -10.61155,-5.28108 0.1023,-1.66864 -2.99509,-2.75167 -4.38856,-6.03251 -0.46567,-0.74436 -0.70908,-1.51694 -0.99483,-2.31069 -0.10584,-0.43392 -7.64117,3.78178 -7.40128,-5.47864 -2.97392,2.5012 -7.94456,-0.56092 -9.48619,-5.64092 -0.41276,-1.10066 -0.58562,-2.18369 -0.60326,-3.23144 0,0 -14.44625,3.48897 -13.83947,-11.22539 0,0 -13.63839,8.60425 -16.90158,-8.72067"
         style="fill:#808000;fill-opacity:1;fill-rule:nonzero;stroke:none;stroke-width:0.0352778"
         id="path1276" />
      <path
         d="m 566.84274,-922.40861 0.98072,0.75847 c 8.30792,5.57742 65.57434,41.56076 93.22506,109.29057 26.23256,83.68947 -9.13694,176.35362 -12.72117,172.86817 1.50636,0.94897 13.83948,-28.19047 16.72167,-76.327 -3.61244,21.69936 -11.07017,44.90156 -23.46678,65.84597 1.30175,-2.67758 13.43378,-33.73614 18.40089,-69.62069 6.88975,-37.09106 -0.43039,-77.86159 -2.16253,-85.46043 -3.21027,-9.80722 -7.50358,-19.58622 -13.10216,-29.19236 -17.87173,-32.37795 -45.14145,-62.5722 -76.89498,-87.40423 -0.77964,-0.51858 -1.12536,-0.76905 -0.98072,-0.75847"
         style="fill:#808000;fill-opacity:1;fill-rule:nonzero;stroke:none;stroke-width:0.0352778"
         id="path1280" />
    </g>
  </g>
</svg>
